<svg xmlns="http://www.w3.org/2000/svg" xmlns:xlink="http://www.w3.org/1999/xlink" version="1.1" id="Layer_1" x="0px" y="0px" viewBox="0 0 1500 300" style="enable-background:new 0 0 1500 300;" xml:space="preserve" width="1500"  height="300" >
<style type="text/css">
	.st0{fill:none;stroke:#000000;stroke-width:13.5964;stroke-linecap:round;stroke-miterlimit:10;}
	.st1{fill:#FFCA00;stroke:#000000;stroke-width:13.5964;stroke-miterlimit:10;}
	.st2{fill:#FFC900;}
</style>
<g>
	<g>
		<g>
			<path class="st0" d="M309.43,63.62c1.64,3.65,6.12,8.55,1.81,15.56c-1.04,1.7-2.3,3.2-3.62,4.52"/>
			<path class="st0" d="M265.73,126.3c-6.51,6.15-16.75,14.42-30.98,21.07c-9.41,4.4-17.68,6.63-20.8,7.42     c-4.95,1.26-9.28,2.02-12.66,2.49c-3.12,6.78-8.09,20.02-7.44,37.18c0.53,13.84,4.5,24.61,7.44,30.98     c6.48,1.82,16.46,3.72,28.5,2.48c19.82-2.04,33.62-11.41,39.66-16.11c-1.2-9.05-1.99-23.73,2.48-40.89     c3.55-13.64,9.17-24.07,13.63-30.98C278.95,135.38,272.34,130.84,265.73,126.3z"/>
			<path class="st0" d="M215.72,157.43c0.42,2.73,3.42,20.27,19.75,30.63c12.82,8.13,25.84,6.76,29.5,6.24"/>
			<path class="st0" d="M243.42,143.65c9.5,7.44,19,14.87,28.5,22.31"/>
			<path class="st0" d="M200.57,225.84c-1.41,1.52-2.82,3.04-4.23,4.56"/>
			<path class="st0" d="M326.06,146.61c27.71,10.79,55.51,45.66,45.38,69.13c-3.08,7.14-8.7,10.94-12.02,13.22     c-19.19,13.18-51.72,11.33-65.82-7.82c-10.57-14.35-6.45-32.52-3.6-45.08c2.2-9.69,5.55-26.75,17.74-31.26     C310.28,143.86,315.66,142.56,326.06,146.61z"/>
			<path class="st0" d="M250.38,89.48C233.97,64.68,194,44.9,173.21,59.76c-6.32,4.52-8.85,10.82-10.38,14.55     c-8.82,21.54-0.13,52.94,21.58,62.67c16.26,7.29,33.15-0.58,44.83-6.02c9.01-4.2,24.97-11.08,26.79-23.95     C256.41,104.31,256.54,98.79,250.38,89.48z"/>
			<path class="st0" d="M344.92,93.6c-3.8-1.23-9.17-5.14-15.67-0.08c-1.57,1.22-2.93,2.64-4.09,4.1"/>
			<circle cx="347.52" cy="94.08" r="7.43"/>
			<circle cx="307.86" cy="61.86" r="7.43"/>
			
				<ellipse transform="matrix(0.6069 -0.7948 0.7948 0.6069 25.2615 277.6447)" class="st1" cx="293.31" cy="113.28" rx="24.28" ry="41.23"/>
		</g>
	</g>
	<g>
		<g>
			<path class="st2" d="M1226.38,212.74c-2.92-3.92-5.08-8.54-6.46-13.69c-1-3.84-1.46-8.23-1.46-13.07c0-2.61,0.15-5.15,0.46-7.61     c0.46-3.38,1.38-7.23,2.69-11.53c1.38-4.31,2.77-7.92,4.31-10.77c3.84-6.92,7.54-10.92,11.07-12.07     c3.54-1.15,6.07-1.69,7.61-1.69c3.61,0,7,1.46,10.15,4.38c2.92,2.54,4.38,6.38,4.38,11.38c0,2.08-0.38,4.31-1.15,6.84     c-0.69,2.54-1.69,4.77-2.85,6.77c-2.23,3.54-5.31,6.77-9.3,9.77c-4,3-7.77,4.92-11.3,5.69c-1.85,0.23-2.92,0.62-3.15,1.08     c-0.23,0.38-0.31,0.92-0.31,1.54c0,0.69,0.08,1.69,0.38,3c2.23,11.69,6.77,17.53,13.76,17.53c3.77,0,7.61-2.15,11.46-6.38     c4.84-5,9.46-11.77,13.77-20.3c2.85-5.77,4.77-9,5.77-9.61c1-0.69,2.15-1,3.46-1c1.69,0,3.15,0.46,4.23,1.54     c1.08,1,1.62,2.31,1.62,3.92c0,2.23-1.38,6-4.15,11.3s-5.38,9.61-7.77,13.07c-2.46,3.46-5.31,6.84-8.54,10.07     c-3.61,3.69-6.77,6.23-9.46,7.54c-2.69,1.38-6.69,2.08-12,2.08C1236.92,222.51,1231.15,219.2,1226.38,212.74z M1235.38,173.6     c2-1.08,3.84-2.54,5.69-4.31c3.61-3.61,5.46-7.54,5.46-11.61c0-1.92-0.69-2.92-2.15-2.92c-1.69,0-3.54,1.38-5.38,4.08     c-2.31,3.31-4.54,8.15-6.54,14.61c-0.15,0.38-0.23,0.69-0.23,0.92s0.15,0.38,0.38,0.38C1233,174.75,1233.92,174.37,1235.38,173.6     z"/>
			<path class="st2" d="M1281.44,212.74c-2.92-3.92-5.08-8.54-6.46-13.69c-1-3.84-1.46-8.23-1.46-13.07c0-2.61,0.15-5.15,0.46-7.61     c0.46-3.38,1.38-7.23,2.69-11.53c1.38-4.31,2.77-7.92,4.31-10.77c3.84-6.92,7.54-10.92,11.07-12.07     c3.54-1.15,6.07-1.69,7.61-1.69c3.61,0,7,1.46,10.15,4.38c2.92,2.54,4.38,6.38,4.38,11.38c0,2.08-0.38,4.31-1.15,6.84     c-0.69,2.54-1.69,4.77-2.85,6.77c-2.23,3.54-5.31,6.77-9.3,9.77c-4,3-7.77,4.92-11.3,5.69c-1.85,0.23-2.92,0.62-3.15,1.08     c-0.23,0.38-0.31,0.92-0.31,1.54c0,0.69,0.08,1.69,0.38,3c2.23,11.69,6.77,17.53,13.76,17.53c3.77,0,7.61-2.15,11.46-6.38     c4.84-5,9.46-11.77,13.77-20.3c2.85-5.77,4.77-9,5.77-9.61c1-0.69,2.15-1,3.46-1c1.69,0,3.15,0.46,4.23,1.54     c1.08,1,1.62,2.31,1.62,3.92c0,2.23-1.38,6-4.15,11.3s-5.38,9.61-7.77,13.07c-2.46,3.46-5.31,6.84-8.54,10.07     c-3.61,3.69-6.77,6.23-9.46,7.54c-2.69,1.38-6.69,2.08-12,2.08C1291.98,222.51,1286.21,219.2,1281.44,212.74z M1290.44,173.6     c2-1.08,3.84-2.54,5.69-4.31c3.61-3.61,5.46-7.54,5.46-11.61c0-1.92-0.69-2.92-2.15-2.92c-1.69,0-3.54,1.38-5.38,4.08     c-2.31,3.31-4.54,8.15-6.54,14.61c-0.15,0.38-0.23,0.69-0.23,0.92s0.15,0.38,0.38,0.38     C1288.05,174.75,1288.98,174.37,1290.44,173.6z"/>
		</g>
		<g>
			<g>
				<path class="st2" d="M1128.44,169.87c0-26.07,0.94-45.48,2.81-58.27c0.12-0.82-0.51-1.53-1.34-1.53h-8.31      c-0.68,0-1.25,0.48-1.34,1.15c-1.91,13.8-2.87,32.18-2.87,55.13c0,30.1,0.78,46.4,2.35,48.9c1.56,2.51,3.29,3.76,5.17,3.76      c1.25,0,2.62-0.67,4.11-2c1.28-1.15,1.99-2.2,2.17-3.17c0.03-0.16,0.02-0.32-0.01-0.48c-0.19-0.96-0.71-5.34-1.56-13.16      C1128.83,192.99,1128.44,182.88,1128.44,169.87z"/>
				<path class="st2" d="M1131.26,213.37c0,0.06-0.03,0.12-0.03,0.19C1131.25,213.59,1131.26,213.54,1131.26,213.37z"/>
				<path class="st2" d="M1197.8,151.77c-6.58-12.07-15.6-20.38-27.04-24.92c-0.47-0.47-0.71-0.78-0.71-0.94      c6.58-5.17,11.91-11.52,15.99-19.04c4.54-8.15,6.82-16.07,6.82-23.75c0-8.46-2.47-15.16-7.41-20.1      c-4.94-4.94-11.48-7.41-19.63-7.41c-12.38,0-22.34,4.55-29.9,13.62c-2.69,3.22-0.44,8.13,3.76,8.13h1.24      c1.52,0,2.91-0.73,3.88-1.89c5.55-6.64,12.49-9.99,20.86-9.99c10.3,0,15.45,6.19,15.45,18.58c0,8.31-3.58,16.77-10.73,25.39      c-7.07,8.47-12.19,13.77-15.37,15.9c-1.14,0.76-2.01,1.9-2.24,3.26c-0.07,0.43-0.11,0.87-0.11,1.3c0,3.29,1.71,4.94,5.14,4.94      c0.31,0,0.7-0.08,1.17-0.24c0.63,0,1.09,0,1.4,0c1.56,0,4.44,1.18,8.65,3.53c7.95,4.39,14.26,10.93,18.94,19.63      s7.02,17.83,7.02,27.39c0,2.82-0.63,6.98-1.87,12.46c-1.25,5.49-2.49,9.49-3.74,11.99c-4.53,8.78-9.32,15.01-14.39,18.69      c-5.07,3.68-12.6,6.62-22.58,8.82c-3.28,0.78-4.91,2.03-4.91,3.76c0,3.13,2.19,4.7,6.58,4.7c4.23,0,9.25-0.86,15.05-2.58      c12.38-3.92,21.75-10.74,28.1-20.46c6.35-9.72,9.52-21.32,9.52-34.8C1206.73,174.73,1203.75,162.74,1197.8,151.77z"/>
			</g>
			<path d="M1138.28,90.75h-9.23c-1.16,0-2.1-0.94-2.1-2.1v-5.88c0-1.16,0.94-2.1,2.1-2.1h9.23c1.16,0,2.1,0.94,2.1,2.1v5.88     C1140.38,89.81,1139.44,90.75,1138.28,90.75z"/>
			<path d="M1132.83,104.38h-9.23c-1.16,0-2.1-0.94-2.1-2.1V96.4c0-1.16,0.94-2.1,2.1-2.1h9.23c1.16,0,2.1,0.94,2.1,2.1v5.88     C1134.92,103.44,1133.98,104.38,1132.83,104.38z"/>
		</g>
		<g>
			<path d="M444.15,107.76h11.65V218h-11.65V107.76z"/>
			<path d="M552.97,169.96V218h-11.18v-46.93c0-17.48-9.13-26.46-24.88-26.46c-17.8,0-28.98,11.02-28.98,29.92V218h-11.18v-82.84     h10.71v15.28c5.98-10.08,17.17-15.91,31.5-15.91C539.11,134.53,552.97,146.18,552.97,169.96z"/>
			<path d="M623.84,212.96c-4.41,3.94-11.02,5.83-17.48,5.83c-15.59,0-24.25-8.82-24.25-24.1v-50.08h-14.8v-9.45h14.8v-18.11h11.18     v18.11h25.2v9.45h-25.2v49.45c0,9.76,5.04,15.12,14.33,15.12c4.57,0,9.13-1.42,12.28-4.25L623.84,212.96z"/>
			<path d="M713.29,180.04H644c1.26,17.32,14.49,28.82,32.6,28.82c10.08,0,19.06-3.62,25.36-10.87l6.3,7.24     c-7.4,8.82-18.9,13.55-31.97,13.55c-25.83,0-43.47-17.64-43.47-42.21s17.17-42.05,40.47-42.05s40.16,17.17,40.16,42.05     C713.45,177.52,713.29,178.78,713.29,180.04z M644,171.7h58.74c-1.42-16.22-13.23-27.56-29.45-27.56     C657.23,144.14,645.42,155.47,644,171.7z"/>
			<path d="M774.87,134.53v10.87c-0.94,0-1.89-0.16-2.68-0.16c-17.32,0-27.88,11.02-27.88,30.55V218h-11.18v-82.84h10.71v16.22     C749.05,140.36,759.6,134.53,774.87,134.53z"/>
			<path d="M868.26,135.16L831.41,218h-11.5l-36.7-82.84h11.66l31.02,70.55l31.34-70.55H868.26z"/>
			<path d="M878.34,109.02c0-4.25,3.62-7.87,8.19-7.87c4.57,0,8.19,3.46,8.19,7.72c0,4.57-3.46,8.19-8.19,8.19     C881.97,117.05,878.34,113.43,878.34,109.02z M880.86,135.16h11.18V218h-11.18V135.16z"/>
			<path d="M989.06,180.04h-69.29c1.26,17.32,14.49,28.82,32.6,28.82c10.08,0,19.06-3.62,25.36-10.87l6.3,7.24     c-7.4,8.82-18.9,13.55-31.97,13.55c-25.83,0-43.47-17.64-43.47-42.21s17.17-42.05,40.47-42.05c23.31,0,40.16,17.17,40.16,42.05     C989.22,177.52,989.06,178.78,989.06,180.04z M919.76,171.7h58.74c-1.42-16.22-13.23-27.56-29.45-27.56     C932.99,144.14,921.18,155.47,919.76,171.7z"/>
			<path d="M1128.91,135.16L1097.57,218h-10.55l-26.14-67.88L1034.73,218h-10.55L993,135.16h10.71l25.98,70.4l26.62-70.4h9.61     l26.46,70.4l26.3-70.4H1128.91z"/>
		</g>
	</g>
</g>
</svg>